<?xml version="1.0" standalone="no"?><!DOCTYPE svg PUBLIC "-//W3C//DTD SVG 1.1//EN" "http://www.w3.org/Graphics/SVG/1.1/DTD/svg11.dtd"><svg t="1773824640857" class="icon" viewBox="0 0 1024 1024" version="1.1" xmlns="http://www.w3.org/2000/svg" p-id="7641" xmlns:xlink="http://www.w3.org/1999/xlink" width="200" height="200"><path d="M603.3 135.7l356.7 117V880H603.3V195.2l-130.7 69.4v106.5h-51.8V234.2l13-7.7 169.5-90.8zM261.9 391.9V880h261.5V420.1l-261.5-85.8-127.7 60.4-13.1 7.7v162.1L64 630.1v258.2h51.8V650l57.2-65.5V432.8l88.9-40.9z m42.9 16c14.8 4 29.2 7.9 43.2 11.6v64.1c-14-2.8-28.4-5.8-43.2-8.8v-66.9z m151.4 215.9v56.9h31.4v-54.8c-10.2-0.7-20.7-1.4-31.4-2.1z m-69.8-4.6v61.5H423v-59.1c-11.8-0.8-24-1.6-36.6-2.4z m-81.6-5.4c14.8 1 29.2 1.9 43.2 2.9v64h-43.2v-66.9z m151.4-77.5v56.9c10.8 1.1 21.2 2.2 31.5 3.2v-54.8c-10.3-1.7-20.8-3.5-31.5-5.3z m-69.8-11.7v61.5c12.6 1.3 24.8 2.5 36.6 3.7v-59.1c-11.8-2-24-4-36.6-6.1z m-81.6-13.7c14.8 2.5 29.2 4.9 43.2 7.2v64.1c-14-1.4-28.4-2.9-43.2-4.4v-66.9z m151.4-62.2v56.9c10.8 2.2 21.2 4.3 31.5 6.4v-54.9c-10.3-2.7-20.8-5.5-31.5-8.4z m-69.8-18.8v61.6c12.6 2.5 24.8 5 36.6 7.4v-59.2c-11.8-3.2-24-6.4-36.6-9.8z m275.4-193.8v91.3c20.1 4.1 39.8 8.1 58.9 12V252c-19.1-5.2-38.7-10.5-58.9-15.9z m206.5 294.5v77.6h42.9v-74.8c-14-0.9-28.3-1.9-42.9-2.8z m-95.2-6.3v83.9h50v-80.6c-16.3-1.1-32.9-2.2-50-3.3z m-111.3-7.4v91.2h58.9v-87.3c-19.1-1.3-38.7-2.5-58.9-3.9z m206.5-105.7v77.7c14.7 1.5 28.9 2.9 42.9 4.3v-74.8c-14-2.3-28.3-4.7-42.9-7.2z m-95.2-16v83.9c17.1 1.7 33.7 3.4 50 5.1v-80.6c-16.3-2.7-32.9-5.5-50-8.4z m-111.3-18.6v91.3c20.1 2 39.8 4 58.9 6v-87.4c-19.1-3.2-38.7-6.5-58.9-9.9z m206.5-84.9v77.7c14.6 3 28.9 5.9 42.9 8.7v-74.8c-14-3.7-28.3-7.6-42.9-11.6z m-95.2-25.6v84c17.1 3.5 33.7 6.9 50 10.2v-80.7c-16.3-4.4-32.9-8.9-50-13.5z" fill="#666666" p-id="7642"></path></svg>