<?xml version="1.0" standalone="no"?><!DOCTYPE svg PUBLIC "-//W3C//DTD SVG 1.1//EN" "http://www.w3.org/Graphics/SVG/1.1/DTD/svg11.dtd"><svg t="1773825884654" class="icon" viewBox="0 0 1024 1024" version="1.1" xmlns="http://www.w3.org/2000/svg" p-id="9451" xmlns:xlink="http://www.w3.org/1999/xlink" width="200" height="200"><path d="M708.496 127.99H313.328c-27.285 0-49.397 22.113-49.397 49.394v617.809c0 27.284 22.112 49.397 49.397 49.397h395.163c27.283 0 49.398-22.113 49.398-49.397V177.384c0.001-27.281-22.114-49.394-49.393-49.394zM510.91 803.516c-23.874 0-43.224-19.352-43.224-43.223 0-23.867 19.351-43.218 43.224-43.218 23.872 0 43.223 19.351 43.223 43.218 0 23.872-19.352 43.223-43.223 43.223z m194.496-121.803H316.412v-481.61h388.994v481.61z" p-id="9452"></path><path d="M618.214 431.55v26.191h-82.803v29.155h82.803v26.191h-82.803v68.865h-49.007v-68.865h-83.227v-26.191h83.227v-29.155h-83.227V431.55h70.978L373.179 273.966h57.457l45.209 81.536c14.783 29.153 21.544 41.407 34.641 65.063h2.113c13.097-23.661 20.276-36.755 34.641-65.063l44.359-81.536h56.612L547.241 431.55h70.973z" p-id="9453"></path></svg>