<?xml version="1.0" standalone="no"?><!DOCTYPE svg PUBLIC "-//W3C//DTD SVG 1.1//EN" "http://www.w3.org/Graphics/SVG/1.1/DTD/svg11.dtd"><svg t="1773825838380" class="icon" viewBox="0 0 1024 1024" version="1.1" xmlns="http://www.w3.org/2000/svg" p-id="8448" xmlns:xlink="http://www.w3.org/1999/xlink" width="200" height="200"><path d="M371.496 363.79h254.06v328.165h-254.06V363.789z m0-37.053v5.282h254.06v-5.282a26.49 26.49 0 0 0-26.462-26.49H397.959a26.49 26.49 0 0 0-26.463 26.49z m0 402.27c0 14.579 11.857 26.462 26.463 26.462h201.135c14.605 0 26.462-11.856 26.462-26.462V723.7h-254.06v5.308z m227.598-460.53c32.121 0 58.206 26.139 58.206 58.26v402.27c0 32.094-26.085 58.206-58.206 58.206H397.959c-32.095 0-58.207-26.112-58.207-58.206v-402.27c0-32.121 26.112-58.233 58.207-58.233h201.135z" fill="#cdcdcd" p-id="8449"></path><path d="M75.372 526.875c0 34.897 4.338 69.282 12.827 102.67l2.506 9.89-8.839 5.12-28.43 16.383-15.09 8.731-4.635-16.815a474.462 474.462 0 0 1-17.03-125.98c0-212.29 140.988-397.203 341.342-456.353V9.512l189.09 82.19-189.09 82.162v-41.768C191.03 189.036 75.372 346.866 75.372 526.848z m81.22 336.573l-49.476 28.564-23.39-204.854 165.726 122.691-39.936 23.04A415.259 415.259 0 0 0 492.57 944.074c113.179 0 219.352-45.54 297.418-124.982l7.303-7.437 52.116 30.073-11.776 12.396a474.462 474.462 0 0 1-345.061 148.668c-127.623 0-247.377-50.822-335.98-139.344z m849.704-183.404l-16.52 12.234-124.28 92.025-24.927 18.432 23.39-204.854 35.436 20.48a412.025 412.025 0 0 0 10.375-91.486c0-189.52-128.215-354.223-308.898-402.863l-9.97-2.695V60.955l16.734 4.177c210.297 52.412 360.825 242.31 360.825 461.743 0 41.499-5.389 82.378-15.98 122.072l53.815 31.097z" fill="#cdcdcd" p-id="8450"></path></svg>