<?xml version="1.0" standalone="no"?><!DOCTYPE svg PUBLIC "-//W3C//DTD SVG 1.1//EN" "http://www.w3.org/Graphics/SVG/1.1/DTD/svg11.dtd"><svg t="1773670182566" class="icon" viewBox="0 0 1024 1024" version="1.1" xmlns="http://www.w3.org/2000/svg" p-id="5893" xmlns:xlink="http://www.w3.org/1999/xlink" width="200" height="200"><path d="M888.2 321.2c-7.6-10.3-19.7-16.5-32.5-16.5H337.4l-24.3-75.3c-5.4-16.7-20.8-27.9-38.4-27.9H153.3c-14 0-25.3 11.3-25.3 25.3s11.3 25.3 25.3 25.3h114l135.6 420.8c3.5 10.7 13.4 17.6 24.1 17.6 0.3 0 0.7-0.1 1-0.1 0.2 0 0.5 0.1 0.7 0.1h344.2c14 0 25.3-11.3 25.3-25.3s-11.3-25.3-25.3-25.3H445.4l-24.2-75.3H799c17.7 0 33.1-11.3 38.4-28.2l56.7-179.2c3.9-12.2 1.7-25.7-5.9-36z m-96.7 192.7H404.8l-51.1-158.6h487.9l-50.1 158.6zM486.5 698.9c-34.1 0-61.8 27.7-61.8 61.8s27.7 61.8 61.8 61.8 61.8-27.7 61.8-61.8-27.7-61.8-61.8-61.8z m0 73.1c-6.2 0-11.2-5-11.2-11.2 0-6.2 5-11.2 11.2-11.2 6.2 0 11.2 5 11.2 11.2 0 6.1-5 11.2-11.2 11.2zM710.3 698.9c-34.1 0-61.8 27.7-61.8 61.8s27.7 61.8 61.8 61.8 61.8-27.7 61.8-61.8-27.7-61.8-61.8-61.8z m0 73.1c-6.2 0-11.2-5-11.2-11.2 0-6.2 5-11.2 11.2-11.2s11.2 5 11.2 11.2c0 6.1-5.1 11.2-11.2 11.2z" p-id="5894"></path></svg>